<svg xmlns="http://www.w3.org/2000/svg" xmlns:xlink="http://www.w3.org/1999/xlink" width="1080" zoomAndPan="magnify" viewBox="0 0 810 809.999993" height="1080" preserveAspectRatio="xMidYMid meet" version="1.0"><defs><g/><clipPath id="49b4db63c6"><path d="M 25.796875 474.238281 L 334 474.238281 L 334 585 L 25.796875 585 Z M 25.796875 474.238281 " clip-rule="nonzero"/></clipPath><clipPath id="3bcfe335c6"><path d="M 22 258 L 316 258 L 316 512 L 22 512 Z M 22 258 " clip-rule="nonzero"/></clipPath><clipPath id="169a875857"><path d="M 222.558594 192.675781 L 315.5625 327.144531 L 48.472656 511.878906 L -44.53125 377.410156 Z M 222.558594 192.675781 " clip-rule="nonzero"/></clipPath><clipPath id="7b97a91715"><path d="M 222.558594 192.675781 L 407.289062 459.765625 L 140.199219 644.496094 L -44.53125 377.410156 Z M 222.558594 192.675781 " clip-rule="nonzero"/></clipPath><clipPath id="d6061df115"><path d="M 111 304 L 241 304 L 241 416 L 111 416 Z M 111 304 " clip-rule="nonzero"/></clipPath><clipPath id="5185a16457"><path d="M 199.363281 275.296875 L 240.320312 334.511719 L 122.503906 416 L 81.546875 356.785156 Z M 199.363281 275.296875 " clip-rule="nonzero"/></clipPath><clipPath id="5232e21d4b"><path d="M 199.363281 275.296875 L 280.851562 393.113281 L 163.035156 474.597656 L 81.546875 356.785156 Z M 199.363281 275.296875 " clip-rule="nonzero"/></clipPath></defs><g fill="#fbfdfe" fill-opacity="1"><g transform="translate(335.75354, 431.860836)"><g><path d="M 25.96875 1.109375 C 21.320312 1.109375 17.320312 0.34375 13.96875 -1.1875 C 10.625 -2.71875 8.039062 -4.894531 6.21875 -7.71875 C 4.394531 -10.539062 3.484375 -13.851562 3.484375 -17.65625 L 15.828125 -17.65625 C 15.828125 -15.019531 16.738281 -12.960938 18.5625 -11.484375 C 20.382812 -10.003906 22.828125 -9.265625 25.890625 -9.265625 C 28.523438 -9.265625 30.609375 -9.773438 32.140625 -10.796875 C 33.671875 -11.828125 34.4375 -13.269531 34.4375 -15.125 C 34.4375 -17.070312 33.507812 -18.648438 31.65625 -19.859375 C 29.8125 -21.078125 26.9375 -22.109375 23.03125 -22.953125 C 16.539062 -24.328125 11.738281 -26.410156 8.625 -29.203125 C 5.507812 -32.003906 3.953125 -35.648438 3.953125 -40.140625 C 3.953125 -45.203125 5.800781 -49.195312 9.5 -52.125 C 13.195312 -55.0625 18.238281 -56.53125 24.625 -56.53125 C 29 -56.53125 32.796875 -55.773438 36.015625 -54.265625 C 39.242188 -52.765625 41.738281 -50.65625 43.5 -47.9375 C 45.269531 -45.21875 46.15625 -41.984375 46.15625 -38.234375 L 34.046875 -38.234375 C 34.046875 -40.722656 33.226562 -42.675781 31.59375 -44.09375 C 29.957031 -45.519531 27.6875 -46.234375 24.78125 -46.234375 C 22.144531 -46.234375 20.0625 -45.71875 18.53125 -44.6875 C 17 -43.664062 16.234375 -42.226562 16.234375 -40.375 C 16.234375 -38.6875 17.078125 -37.257812 18.765625 -36.09375 C 20.453125 -34.9375 23.40625 -33.859375 27.625 -32.859375 C 34.539062 -31.222656 39.53125 -29.03125 42.59375 -26.28125 C 45.65625 -23.539062 47.1875 -19.976562 47.1875 -15.59375 C 47.1875 -10.375 45.296875 -6.285156 41.515625 -3.328125 C 37.742188 -0.367188 32.5625 1.109375 25.96875 1.109375 Z M 25.96875 1.109375 "/></g></g></g><g fill="#fbfdfe" fill-opacity="1"><g transform="translate(386.500758, 431.860836)"><g><path d="M 29.296875 1.109375 C 24.492188 1.109375 20.363281 0.144531 16.90625 -1.78125 C 13.445312 -3.707031 10.78125 -6.453125 8.90625 -10.015625 C 7.03125 -13.578125 6.09375 -17.835938 6.09375 -22.796875 L 6.09375 -55.421875 L 18.6875 -55.421875 L 18.6875 -23.671875 C 18.6875 -15.117188 22.222656 -10.84375 29.296875 -10.84375 C 36.367188 -10.84375 39.90625 -15.117188 39.90625 -23.671875 L 39.90625 -55.421875 L 52.484375 -55.421875 L 52.484375 -22.796875 C 52.484375 -17.835938 51.546875 -13.578125 49.671875 -10.015625 C 47.804688 -6.453125 45.144531 -3.707031 41.6875 -1.78125 C 38.226562 0.144531 34.097656 1.109375 29.296875 1.109375 Z M 29.296875 1.109375 "/></g></g></g><g fill="#fbfdfe" fill-opacity="1"><g transform="translate(445.085688, 431.860836)"><g><path d="M 6.65625 0 L 6.65625 -55.421875 L 17.34375 -55.421875 L 37.046875 -26.6875 L 56.6875 -55.421875 L 67.296875 -55.421875 L 67.296875 0 L 54.78125 0 L 54.78125 -33.328125 L 41.328125 -13.703125 L 32.625 -13.703125 L 19.15625 -33.40625 L 19.15625 0 Z M 6.65625 0 "/></g></g></g><g fill="#fbfdfe" fill-opacity="1"><g transform="translate(519.02937, 431.860836)"><g><path d="M 6.65625 0 L 6.65625 -55.421875 L 17.34375 -55.421875 L 37.046875 -26.6875 L 56.6875 -55.421875 L 67.296875 -55.421875 L 67.296875 0 L 54.78125 0 L 54.78125 -33.328125 L 41.328125 -13.703125 L 32.625 -13.703125 L 19.15625 -33.40625 L 19.15625 0 Z M 6.65625 0 "/></g></g></g><g fill="#fbfdfe" fill-opacity="1"><g transform="translate(592.973041, 431.860836)"><g><path d="M 6.015625 0 L 6.015625 -41.5625 L 18.046875 -41.5625 L 18.046875 0 Z M 4.28125 -55.03125 C 4.28125 -57.238281 5.003906 -59.039062 6.453125 -60.4375 C 7.898438 -61.84375 9.757812 -62.546875 12.03125 -62.546875 C 14.351562 -62.546875 16.226562 -61.84375 17.65625 -60.4375 C 19.082031 -59.039062 19.796875 -57.238281 19.796875 -55.03125 C 19.796875 -52.8125 19.082031 -51 17.65625 -49.59375 C 16.226562 -48.195312 14.351562 -47.5 12.03125 -47.5 C 9.757812 -47.5 7.898438 -48.195312 6.453125 -49.59375 C 5.003906 -51 4.28125 -52.8125 4.28125 -55.03125 Z M 4.28125 -55.03125 "/></g></g></g><g fill="#fbfdfe" fill-opacity="1"><g transform="translate(617.04037, 431.860836)"><g><path d="M 19.953125 0 L 19.953125 -43.625 L 2.375 -43.625 L 2.375 -55.421875 L 50.109375 -55.421875 L 50.109375 -43.625 L 32.546875 -43.625 L 32.546875 0 Z M 19.953125 0 "/></g></g></g><g fill="#fbfdfe" fill-opacity="1"><g transform="translate(669.529316, 431.860836)"><g><path d="M 6.484375 -39.828125 C 9.660156 -40.617188 11.328125 -42.546875 11.484375 -45.609375 C 11.265625 -45.554688 11.050781 -45.53125 10.84375 -45.53125 C 10.632812 -45.53125 10.425781 -45.53125 10.21875 -45.53125 C 8.15625 -45.53125 6.476562 -46.175781 5.1875 -47.46875 C 3.894531 -48.757812 3.25 -50.378906 3.25 -52.328125 C 3.25 -54.285156 3.90625 -55.921875 5.21875 -57.234375 C 6.539062 -58.554688 8.285156 -59.21875 10.453125 -59.21875 C 13.140625 -59.21875 15.207031 -58.226562 16.65625 -56.25 C 18.113281 -54.269531 18.84375 -51.882812 18.84375 -49.09375 C 18.84375 -46.71875 18.367188 -44.40625 17.421875 -42.15625 C 16.472656 -39.914062 15.070312 -38.054688 13.21875 -36.578125 C 11.375 -35.097656 9.128906 -34.253906 6.484375 -34.046875 Z M 6.484375 -39.828125 "/></g></g></g><g fill="#fbfdfe" fill-opacity="1"><g transform="translate(691.617411, 431.860836)"><g><path d="M 4.03125 0 L 4.03125 -8.875 L 26.921875 -28.5 C 28.765625 -30.1875 30.144531 -31.796875 31.0625 -33.328125 C 31.988281 -34.859375 32.453125 -36.46875 32.453125 -38.15625 C 32.453125 -40.425781 31.710938 -42.257812 30.234375 -43.65625 C 28.765625 -45.0625 26.816406 -45.765625 24.390625 -45.765625 C 21.898438 -45.765625 19.90625 -44.984375 18.40625 -43.421875 C 16.90625 -41.867188 16.101562 -39.664062 16 -36.8125 L 4.515625 -36.8125 C 4.671875 -42.988281 6.539062 -47.816406 10.125 -51.296875 C 13.71875 -54.785156 18.550781 -56.53125 24.625 -56.53125 C 28.582031 -56.53125 32.050781 -55.789062 35.03125 -54.3125 C 38.007812 -52.832031 40.34375 -50.757812 42.03125 -48.09375 C 43.726562 -45.425781 44.578125 -42.300781 44.578125 -38.71875 C 44.578125 -35.65625 43.8125 -32.566406 42.28125 -29.453125 C 40.75 -26.335938 38.109375 -23.222656 34.359375 -20.109375 L 23.90625 -11 L 45.609375 -11 L 45.609375 0 Z M 4.03125 0 "/></g></g></g><g fill="#fbfdfe" fill-opacity="1"><g transform="translate(742.522965, 431.860836)"><g><path d="M 2.140625 -10.140625 L 2.140625 -18.921875 L 20.03125 -55.421875 L 33.734375 -55.421875 L 16.703125 -20.828125 L 30.484375 -20.828125 L 32.375 -36.265625 L 42.203125 -36.265625 L 42.203125 -21.0625 L 49.171875 -21.0625 L 49.171875 -10.140625 L 42.203125 -10.140625 L 42.203125 0 L 29.84375 0 L 29.84375 -10.140625 Z M 2.140625 -10.140625 "/></g></g></g><g clip-path="url(#49b4db63c6)"><path fill="#fabf4d" d="M 179.816406 276.46875 C 210.277344 276.46875 240.054688 285.503906 265.382812 302.425781 C 290.710938 319.351562 310.453125 343.402344 322.109375 371.546875 C 333.765625 399.691406 336.816406 430.660156 330.875 460.535156 C 324.929688 490.410156 310.261719 517.855469 288.722656 539.394531 C 267.183594 560.933594 239.738281 575.601562 209.863281 581.546875 C 179.984375 587.488281 149.019531 584.4375 120.875 572.78125 C 92.730469 561.125 68.675781 541.382812 51.753906 516.054688 C 34.828125 490.726562 25.796875 460.949219 25.796875 430.488281 L 179.816406 430.488281 Z M 179.816406 276.46875 " fill-opacity="1" fill-rule="nonzero"/></g><g clip-path="url(#3bcfe335c6)"><g clip-path="url(#169a875857)"><g clip-path="url(#7b97a91715)"><path fill="#fbbf4b" d="M 275.082031 551.640625 C 248.894531 569.75 217.921875 579.691406 186.085938 580.203125 C 154.25 580.714844 122.976562 571.773438 96.21875 554.511719 C 69.464844 537.246094 48.425781 512.4375 35.773438 483.21875 C 23.117188 454 19.410156 421.6875 25.121094 390.359375 C 30.828125 359.035156 45.699219 330.105469 67.851562 307.234375 C 90 284.359375 118.4375 268.566406 149.566406 261.855469 C 180.691406 255.140625 213.109375 257.808594 242.71875 269.523438 C 272.328125 281.234375 297.800781 301.460938 315.910156 327.648438 L 183.503906 419.230469 Z M 275.082031 551.640625 " fill-opacity="1" fill-rule="nonzero"/></g></g></g><g clip-path="url(#d6061df115)"><g clip-path="url(#5185a16457)"><g clip-path="url(#5232e21d4b)"><path fill="#101720" d="M 222.503906 433.4375 C 210.964844 441.414062 197.320312 445.792969 183.296875 446.019531 C 169.269531 446.246094 155.492188 442.304688 143.707031 434.699219 C 131.917969 427.09375 122.652344 416.164062 117.074219 403.292969 C 111.5 390.421875 109.867188 376.1875 112.382812 362.386719 C 114.898438 348.585938 121.449219 335.839844 131.207031 325.765625 C 140.964844 315.6875 153.492188 308.730469 167.207031 305.773438 C 180.917969 302.816406 195.199219 303.992188 208.246094 309.152344 C 221.289062 314.308594 232.511719 323.222656 240.488281 334.757812 L 182.15625 375.105469 Z M 222.503906 433.4375 " fill-opacity="1" fill-rule="nonzero"/></g></g></g></svg>